# xmcd
#
# Track frame offsets:
#	150
#	18130
#	43845
#	60650
#	76775
#	93220
#	109015
#	121520
#	140715
#	151720
#	165000
#	185070
#	198375
#	213170
#	227905
#	246515
#	258645
#	269805
#	287790
#	307195
#
# Disc length: 4346 seconds
#
# Revision: 1
# Processed by: cddbd v1.5.1PL0 Copyright (c) Steve Scherf et al.
# Submitted via: audiograbber 1.83.01
#
DISCID=1710f814
DTITLE=Various Artist - Walk That Walk!
DYEAR=1995
DGENRE=Beach Music
TTITLE0=John Ellison - Your Place Or Mine
TTITLE1=Legendary Dukes - Happy Ever After
TTITLE2=Stylistics - Sixteen Bars
TTITLE3=Terri Gore - Come On And See Me
TTITLE4=Steve Smith and The Nakeds - Little Bitty Pretty One
TTITLE5=Topper Price and The Upsetters - Worried 'Bout You Baby
TTITLE6=L.J. Reynolds &Chocalate Syrup - What's A Matter Baby
TTITLE7=Little Anthony and The Imperials - La La La At The End
TTITLE8=Buena Vistas - Filet Of Soul
TTITLE9=Johnny Maestro - Free As The Wind
TTITLE10=Solomon Burke - See That Girl [Original Mix]
TTITLE11=Donnie Elbert - Come See About Me
TTITLE12=Steve Smith and The Nakeds - Open The Door To Your Heart
TTITLE13=Chambers Brothers - Let's Go, Let's Go, Let's Go
TTITLE14=Billy Scott - Don't Let Go
TTITLE15=Sapphires - I Found Out Too Late
TTITLE16=Showmen - You Are Everything
TTITLE17=John Ellison - Love Don't Get Better Than This
TTITLE18=Solomon Burke - Please Don't Say Goodbye to Me
TTITLE19=Legendary Dukes - You Are All I Need
EXTD=
EXTT0=
EXTT1=
EXTT2=
EXTT3=
EXTT4=
EXTT5=
EXTT6=
EXTT7=
EXTT8=
EXTT9=
EXTT10=
EXTT11=
EXTT12=
EXTT13=
EXTT14=
EXTT15=
EXTT16=
EXTT17=
EXTT18=
EXTT19=
PLAYORDER=
